<svg width="24" height="24" viewBox="0 0 24 24" fill="none" xmlns="http://www.w3.org/2000/svg">
<path d="M20.9533 10.8274C21.6775 10.8274 21.9798 9.89691 21.3916 9.46801L12.4408 2.95707C12.3129 2.86342 12.1586 2.81293 12.0001 2.81293C11.8417 2.81293 11.6873 2.86342 11.5595 2.95707L2.60874 9.46801C2.02046 9.89457 2.3228 10.8274 3.04936 10.8274H4.50015V19.593H2.81265C2.70952 19.593 2.62515 19.6774 2.62515 19.7805V20.9993C2.62515 21.1024 2.70952 21.1868 2.81265 21.1868H21.1876C21.2908 21.1868 21.3751 21.1024 21.3751 20.9993V19.7805C21.3751 19.6774 21.2908 19.593 21.1876 19.593H19.5001V10.8274H20.9533ZM12.0001 4.60941L18.354 9.23129H5.64624L12.0001 4.60941ZM6.18764 10.8274H8.92983V19.593H6.18764V10.8274ZM10.6173 10.8274H13.3595V19.593H10.6173V10.8274ZM17.8126 19.593H15.047V10.8274H17.8126V19.593Z" fill="#262626"/>
</svg>
