<svg width="57" height="57" viewBox="0 0 57 57" fill="none" xmlns="http://www.w3.org/2000/svg">
<path d="M17.5119 19.17L19.1692 17.5128C19.3165 17.3654 19.4638 17.3654 19.6111 17.5128L39.0566 36.9582C39.2039 37.1055 39.2039 37.2528 39.0566 37.4001L37.3993 39.0574C37.252 39.2047 37.1047 39.2047 36.9574 39.0574L17.5119 19.612C17.3646 19.4647 17.3646 19.3173 17.5119 19.17Z" fill="white"/>
<path d="M17.9539 36.5162L36.5154 17.9547C36.6627 17.8074 36.81 17.8074 36.9574 17.9547L38.6146 19.612C38.762 19.7593 38.762 19.9066 38.6146 20.0539L20.0531 38.6155C19.9058 38.7628 19.7585 38.7628 19.6111 38.6155L17.9539 36.9582C17.8065 36.8109 17.8065 36.6636 17.9539 36.5162Z" fill="white"/>
</svg>
