<svg width="57" height="58" viewBox="0 0 57 58" fill="none" xmlns="http://www.w3.org/2000/svg">
<path d="M17.512 19.8841L19.1693 18.2268C19.3166 18.0795 19.4639 18.0795 19.6112 18.2268L39.0566 37.6722C39.2039 37.8195 39.2039 37.9668 39.0566 38.1141L37.3994 39.7714C37.252 39.9187 37.1047 39.9187 36.9574 39.7714L17.512 20.326C17.3647 20.1787 17.3647 20.0314 17.512 19.8841Z" fill="#262626"/>
<path d="M17.9539 37.2303L36.5155 18.6687C36.6628 18.5214 36.8101 18.5214 36.9574 18.6687L38.6147 20.326C38.762 20.4733 38.762 20.6206 38.6147 20.7679L20.0531 39.3295C19.9058 39.4768 19.7585 39.4768 19.6112 39.3295L17.9539 37.6722C17.8066 37.5249 17.8066 37.3776 17.9539 37.2303Z" fill="#262626"/>
</svg>
